<svg width="48" height="48" viewBox="0 0 48 48" fill="none" xmlns="http://www.w3.org/2000/svg">
<path d="M23.996 19.2142C20.0977 19.2142 16.9243 16.0513 16.9243 12.1659C16.9243 8.28058 20.0977 5.12573 23.996 5.12573C27.8943 5.12573 31.0677 8.2886 31.0677 12.1739C31.0677 16.0593 27.8943 19.2221 23.996 19.2221V19.2142ZM23.996 7.02025C21.1447 7.02025 18.8331 9.33219 18.8331 12.1659C18.8331 14.9997 21.1528 17.3116 23.996 17.3116C26.8391 17.3116 29.1588 14.9997 29.1588 12.1659C29.1588 9.33219 26.8391 7.02025 23.996 7.02025Z" fill="#4F4F4F"/>
<path d="M38.945 19.2147C36.5448 19.2147 34.5957 17.272 34.5957 14.8798C34.5957 12.4875 36.5448 10.5449 38.945 10.5449C41.3452 10.5449 43.2943 12.4875 43.2943 14.8798C43.2943 17.272 41.3452 19.2147 38.945 19.2147ZM38.945 12.4394C37.5999 12.4394 36.4965 13.5312 36.4965 14.8798C36.4965 16.2285 37.5919 17.3202 38.945 17.3202C40.2981 17.3202 41.3935 16.2285 41.3935 14.8798C41.3935 13.5312 40.2981 12.4394 38.945 12.4394Z" fill="#4F4F4F"/>
<path d="M15.5066 42.2455C14.1454 42.2455 12.9775 41.1859 12.8648 39.8293L12.8406 39.5322H4.74596C3.54587 39.5322 2.57129 38.5609 2.57129 37.3728V28.125C2.57129 25.1548 5.01176 22.7305 8.01603 22.7305H9.98934C12.1076 22.7305 14.0487 23.9667 14.9347 25.8773L15.1361 26.3107L15.4663 25.9576C17.351 23.9025 20.0251 22.7305 22.8119 22.7305H25.1879C27.9666 22.7305 30.6487 23.9025 32.5335 25.9576L32.8637 26.3107L33.065 25.8773C33.951 23.9667 35.8921 22.7305 38.0104 22.7305H39.9837C42.988 22.7305 45.4285 25.1468 45.4285 28.125V37.2845C45.4285 38.5207 44.4136 39.5322 43.1652 39.5322H35.1672L35.1431 39.8293C35.0222 41.1859 33.8624 42.2455 32.5012 42.2455H15.5066ZM22.8119 24.633C18.3739 24.633 14.7575 28.2374 14.7575 32.6606V39.5964C14.7575 40.0058 15.0958 40.343 15.5066 40.343H32.4932C32.904 40.343 33.2422 40.0058 33.2422 39.5964V32.6606C33.2422 28.2374 29.6258 24.633 25.1879 24.633H22.8119ZM38.0104 24.633C36.0613 24.633 34.4665 26.1984 34.4665 28.125V29.0562L34.4907 29.1124C35.1833 30.9186 35.1753 32.0986 35.1592 35.2455C35.1592 35.8556 35.1511 36.5379 35.1511 37.3086V37.6297H41.7718C42.8511 37.6297 43.4229 37.5681 43.4874 37.445L43.576 37.2765L43.5196 37.1882V28.117C43.5196 26.1903 41.9329 24.625 39.9757 24.625H38.0024L38.0104 24.633ZM8.02408 24.633C6.07493 24.633 4.48017 26.1984 4.48017 28.125V37.6377H12.8487V37.3165C12.8487 36.5459 12.8486 35.8636 12.8406 35.2535C12.8164 32.0986 12.8084 30.9186 13.5091 29.1124L13.5333 29.0562V28.125C13.5333 26.1984 11.9466 24.633 9.98934 24.633H8.01603H8.02408Z" fill="#4F4F4F"/>
<path d="M9.0471 19.2147C6.6469 19.2147 4.69775 17.272 4.69775 14.8798C4.69775 12.4875 6.6469 10.5449 9.0471 10.5449C11.4473 10.5449 13.3964 12.4875 13.3964 14.8798C13.3964 17.272 11.4473 19.2147 9.0471 19.2147ZM9.0471 12.4394C7.70202 12.4394 6.59858 13.5312 6.59858 14.8798C6.59858 16.2285 7.69397 17.3202 9.0471 17.3202C10.4002 17.3202 11.4956 16.2285 11.4956 14.8798C11.4956 13.5312 10.4002 12.4394 9.0471 12.4394Z" fill="#4F4F4F"/>
</svg>
