<svg width="138" height="26" viewBox="0 0 138 26" fill="none" xmlns="http://www.w3.org/2000/svg">
<path d="M3.66163 20.4114C2.63293 20.4137 1.68259 19.8622 1.17411 18.968C0.672956 18.0792 0.703008 16.9865 1.25225 16.1266L6.37489 8.08234C6.90867 7.20216 7.87474 6.67725 8.90366 6.70834C9.93182 6.73298 10.867 7.30945 11.351 8.21691C11.8286 9.11989 11.7689 10.2063 11.1969 11.0539L6.07752 19.0982C5.54989 19.9204 4.63855 20.4158 3.66163 20.4114Z" fill="#F62B54"/>
<path d="M12.4494 20.4111C11.4162 20.4111 10.4655 19.8586 9.96625 18.9709C9.4662 18.0845 9.49626 16.9945 10.0444 16.1371L15.1573 8.11129C15.6833 7.21847 16.6523 6.68124 17.6882 6.70799C18.7301 6.73078 19.6743 7.31359 20.1518 8.22524C20.6261 9.1369 20.5567 10.2298 19.9673 11.0753L14.8555 19.1011C14.3296 19.9197 13.4225 20.4136 12.4494 20.4111Z" fill="#FFCC00"/>
<path d="M21.0376 20.4803C22.4941 20.4803 23.6749 19.3243 23.6749 17.8983C23.6749 16.4724 22.4941 15.3164 21.0376 15.3164C19.581 15.3164 18.4003 16.4724 18.4003 17.8983C18.4003 19.3243 19.581 20.4803 21.0376 20.4803Z" fill="#00CA72"/>
<path d="M135.61 15.465C136.407 15.465 136.884 16.0315 136.884 16.9594V20.1394H137.966V16.8867C137.966 15.3087 137.222 14.3938 135.824 14.3938C135.277 14.3938 134.409 14.5435 133.891 15.5496C133.646 14.945 133.089 14.5239 132.44 14.4535C132.24 14.4168 132.036 14.4047 131.833 14.4176C131.388 14.4535 130.595 14.7302 130.299 15.3575V14.5142H129.216V20.1394H130.299V17.1038C130.299 15.923 131.072 15.465 131.846 15.465C132.571 15.465 133.047 16.0196 133.047 16.9475V20.1394H134.124V17.1038C134.124 16.1639 134.688 15.4541 135.61 15.465ZM125.24 19.1995C125.735 19.2104 126.213 19.0128 126.559 18.6547C126.906 18.2965 127.091 17.8092 127.072 17.3089C127.072 16.1758 126.239 15.465 125.24 15.465C124.241 15.465 123.408 16.1758 123.408 17.3089C123.389 17.8081 123.573 18.2944 123.918 18.6514C124.264 19.0096 124.739 19.2082 125.232 19.1995H125.24ZM125.24 20.2544C123.658 20.2544 122.337 19.0855 122.337 17.3024C122.337 15.5192 123.658 14.3873 125.24 14.3873C126.823 14.3873 128.154 15.5192 128.154 17.3024C128.154 19.0855 126.815 20.2598 125.233 20.2598L125.24 20.2544ZM116.764 17.3024L116.753 17.3089C116.753 15.5257 118.109 14.3938 119.702 14.3873C120.511 14.3716 121.29 14.6997 121.843 15.2902L121.023 15.9892C120.671 15.6435 120.195 15.4528 119.702 15.4595C118.704 15.4595 117.835 16.1704 117.835 17.3024C117.835 18.0675 118.29 18.7567 118.988 19.0497C119.686 19.3428 120.489 19.18 121.023 18.6395L121.855 19.3384C121.3 19.935 120.517 20.2679 119.702 20.2544C118.121 20.2544 116.764 19.0855 116.764 17.3024ZM113.299 19.0595C113.296 18.8609 113.373 18.6695 113.512 18.5274C113.651 18.3853 113.84 18.3042 114.039 18.302C114.238 18.3042 114.427 18.3853 114.566 18.5274C114.705 18.6695 114.781 18.8609 114.779 19.0595C114.759 19.4548 114.435 19.7663 114.039 19.7704C113.643 19.7663 113.319 19.4548 113.299 19.0595Z" fill="#333333"/>
<path d="M116.26 7.36278H112.406L109.705 14.3272L107.017 7.36278H103.163L107.849 18.3678L104.935 25.6437H108.76L116.26 7.36278ZM92.8215 13.4839C92.8215 15.2421 94.3583 16.399 95.868 16.399C97.3516 16.399 98.8091 15.3224 98.8091 13.4828C98.8091 11.6432 97.3516 10.5655 95.868 10.5655C94.3583 10.5655 92.8215 11.7235 92.8215 13.4828V13.4839ZM98.8091 19.6289V18.2365C98.0277 19.4194 96.2044 19.8666 95.2689 19.8666C92.1714 19.8666 89.0729 17.4246 89.0729 13.4828C89.0729 9.54208 92.1703 7.10014 95.2689 7.10014C96.0492 7.10014 97.8725 7.36061 98.8091 8.7281V7.36712H102.401V19.6311L98.8091 19.63V19.6289ZM88.0505 19.6289H84.4581V18.1051C83.858 19.2339 82.4026 19.8915 80.8918 19.8915C77.7672 19.8915 75.0073 17.3964 75.0073 13.5327C75.0073 9.59634 77.7672 7.09797 80.8918 7.09797C82.4004 7.09797 83.8601 7.72744 84.4581 8.85725V0.681641H88.0505V19.6289ZM84.38 13.4557C84.38 11.6172 83.0527 10.5395 81.569 10.5395C80.0323 10.5395 78.7559 11.6953 78.7559 13.4557C78.7559 15.2725 80.0323 16.4229 81.568 16.4229C83.0798 16.4251 84.38 15.2161 84.38 13.4557ZM66.1252 13.1388C66.1252 11.2742 67.0889 10.6437 68.3641 10.6437C69.5873 10.6437 70.4729 11.4576 70.4729 13.0856V19.6267H74.0913V12.2988C74.0913 8.80624 72.3722 7.09797 69.6383 7.09797C68.2068 7.09797 66.7752 7.91195 66.1241 9.14702V7.36278H62.5078V19.6267H66.1252V13.1388ZM55.1603 19.8373C51.7242 19.8373 48.8579 17.3161 48.8579 13.4546C48.8579 9.59091 51.721 7.09471 55.1603 7.09471C58.5996 7.09471 61.4876 9.59091 61.4876 13.4546C61.4876 17.3183 58.5964 19.8384 55.1603 19.8384V19.8373ZM55.1603 16.2666C56.6689 16.2666 57.9202 15.1618 57.9202 13.4557C57.9202 11.8006 56.67 10.6708 55.1603 10.6708C54.4257 10.6593 53.7186 10.9501 53.2046 11.475C52.6877 12.0026 52.4069 12.7173 52.4264 13.4557C52.4275 15.164 53.6767 16.2666 55.1603 16.2666ZM42.3711 10.6447C43.4379 10.6447 44.3756 11.4859 44.3756 13.0867V19.6289H47.968V12.6634C47.968 8.96035 46.1675 7.0958 43.2816 7.0958C42.4243 7.0958 40.8093 7.35627 39.6372 9.27509C38.96 7.8566 37.6587 7.12076 35.7355 7.12076C34.3718 7.11382 33.13 7.90491 32.5599 9.14377V7.36387H28.9393V19.6278H32.5567V13.1388C32.5567 11.2742 33.5725 10.6437 34.6654 10.6437C35.7073 10.6437 36.6428 11.4576 36.67 13.0075V19.6278H40.2884V13.1388C40.2884 11.3556 41.2261 10.6458 42.3711 10.6458V10.6447Z" fill="#333333"/>
</svg>
