<svg width="138" height="29" viewBox="0 0 138 29" fill="none" xmlns="http://www.w3.org/2000/svg">
<path d="M136.682 9.84866C137.757 10.7185 136.619 12.0945 135.67 11.3987C134.499 10.6553 131.842 10.3074 131.51 11.9522C131.083 14.5461 137.963 13.0594 137.852 17.2665C137.742 21.2839 131.921 21.3788 129.739 19.5757C129.217 19.1487 129.232 18.4528 129.517 18.0257C129.928 17.6145 130.387 17.4722 130.925 17.915C132.222 18.8007 135.559 19.465 135.796 17.2191C135.591 14.8782 129.011 16.2859 129.501 11.7941C129.865 8.72571 134.499 8.17209 136.682 9.84866ZM126.306 10.4655V16.191C126.306 22.1063 116.769 22.1063 116.769 16.191V10.4655C116.769 9.0421 118.841 8.97877 118.841 10.4655V16.191C118.841 19.3068 124.234 19.4967 124.234 16.191V10.4655C124.234 9.0578 126.306 8.94711 126.306 10.4655ZM60.9982 9.02627C63.7661 9.16851 66.6604 11.0823 66.6604 14.8309C66.6604 18.5793 63.7661 20.5247 60.9982 20.5247C58.0722 20.6513 55.0355 18.7058 55.0355 14.8309C55.0355 10.9399 58.0722 9.02627 60.9982 9.02627ZM74.9328 9.42156C78.9501 9.42156 79.7725 14.7992 76.4195 16.1435L78.5231 18.7058C79.3455 19.9237 77.7006 21.0941 76.7516 19.8921L74.3634 16.4757H71.8802V19.3385C71.8802 20.7145 69.7766 20.762 69.7766 19.3701V10.3864C69.7766 9.83282 70.2037 9.42156 70.7256 9.42156H74.9328ZM42.1604 9.27933C42.6191 9.27933 42.888 9.54822 43.1569 9.84865L46.6364 14.5461L50.2426 9.67463C50.7645 9.02628 52.0456 9.27933 52.0456 10.3706V19.2753C52.0456 19.9711 51.6028 20.3665 51.0967 20.3665C50.5273 20.3665 50.0844 19.9711 50.0844 19.2753V13.4232L47.4589 16.7446C46.8895 17.4405 46.1778 17.4405 45.6558 16.7446L43.2992 13.4232V19.2753C43.2992 19.9711 42.7298 20.3665 42.1604 20.3665C41.6543 20.3665 41.2114 19.9711 41.2114 19.2753V10.3706C41.2114 9.54823 41.9073 9.27933 42.1604 9.27933ZM86.4 9.27933C88.4562 9.27933 90.3066 10.6553 90.3066 13.2966C90.3066 15.7956 88.4562 17.1874 86.4 17.1874H83.7586V19.2753C83.7586 19.9711 83.3158 20.3665 82.7464 20.3665C82.2245 20.3665 81.6709 19.9711 81.6709 19.2753V10.3706C81.6709 9.84866 82.0821 9.27933 82.7464 9.27933H86.4ZM101.505 9.42156C102.059 9.42156 102.486 9.83282 102.486 10.4023V19.386C102.486 19.9394 102.059 20.3665 101.505 20.3665C100.936 20.3665 100.43 19.9394 100.43 19.386V15.9221H95.2735V19.386C95.2735 19.9394 94.8622 20.3665 94.3086 20.3665C93.5969 20.3665 93.1857 19.9394 93.1857 19.386V10.4023C93.1857 9.83282 93.5969 9.42156 94.3086 9.42156C94.8622 9.42156 95.2735 9.83282 95.2735 10.4023V13.8503H100.43V10.4023C100.43 9.83282 100.936 9.42156 101.505 9.42156ZM112.514 9.42156C113.969 9.42156 113.937 11.4777 112.514 11.4777H107.959V13.8503H111.944C113.352 13.8503 113.352 15.9221 111.944 15.9221H107.959V18.2945H112.783C114.222 18.2945 114.333 20.3665 112.783 20.3665H106.836C106.282 20.3665 105.855 19.9394 105.855 19.386V10.4023C105.855 9.83282 106.282 9.42156 106.836 9.42156H112.514ZM60.8242 11.0823C59.0528 11.0823 57.1232 12.3319 57.1232 14.8308C57.1232 17.314 59.0528 18.5793 60.8242 18.5793C62.6431 18.5793 64.5885 17.314 64.5885 14.8308C64.5885 12.3319 62.6431 11.0823 60.8242 11.0823ZM86.4 11.2722H83.7586V15.2104H86.4C87.4596 15.2104 88.298 14.2772 88.298 13.2966C88.298 12.1895 87.4596 11.2722 86.4 11.2722ZM74.9328 11.3354H71.8802V14.6568H74.9328C76.9889 14.6568 77.1154 11.3354 74.9328 11.3354Z" fill="#3DB5E6"/>
<path d="M28.6621 17.7229C27.1201 23.918 21.4783 28.3255 14.8334 28.3255C8.15851 28.3255 2.56522 23.6571 1.08643 17.4365C2.8646 17.4365 4.52694 17.4446 5.29868 17.4446C5.66274 17.4446 5.73344 17.4509 5.75451 17.4494C6.33519 17.4208 7.06332 17.2292 7.54772 16.0513L9.3936 11.2227L13.493 21.0928C13.8616 21.8796 14.4769 21.8239 14.844 21.8239H14.8786C15.5946 21.8239 15.9061 21.5729 16.1783 21.0539L20.8088 11.2967L22.3884 15.694L22.4847 15.907C22.8187 16.6396 23.0589 17.3632 23.8854 17.4578C24.0558 17.4773 26.0343 17.4427 28.7016 17.4427C28.7016 17.4427 28.7016 17.4598 28.6621 17.7229Z" fill="#3DB5E6"/>
<path d="M29.1168 14.0751C29.1168 14.1489 29.1168 14.3342 29.1153 14.3342H29.1123H24.855L22.3712 7.39596C22.15 6.87996 21.8176 6.1064 20.8487 6.1064C20.256 6.1064 19.7204 6.59592 19.4166 7.40377L14.914 17.8332L10.5798 7.46703C10.1556 6.54636 9.86227 6.11336 9.01379 6.11336C8.43761 6.11336 8.01489 6.3256 7.55455 7.41627L4.98206 14.4373L0.708121 14.4328C0.70511 14.326 0.703613 14.2192 0.703613 14.1124C0.703613 6.30766 7.03103 0 14.8357 0C22.6404 0 29.1168 6.27043 29.1168 14.0751Z" fill="#D8292F"/>
</svg>
