<svg width="138" height="19" viewBox="0 0 138 19" fill="none" xmlns="http://www.w3.org/2000/svg">
<path d="M59.2079 11.8475H68.2703L63.4784 4.13801L54.6836 18.0771H50.6809L61.3784 1.33328C61.8435 0.656766 62.6186 0.248047 63.4784 0.248047C64.3099 0.248047 65.0851 0.642679 65.5361 1.3051L76.2758 18.0771H72.2731L70.3845 14.9623H61.2092L59.2079 11.8475ZM100.785 14.9623V0.417176H97.3888V16.3858C97.3888 16.8227 97.5579 17.2455 97.8821 17.5697C98.2062 17.8938 98.6431 18.0771 99.1223 18.0771H114.612L116.613 14.9623H100.785ZM44.5923 12.3549C47.8904 12.3549 50.5682 9.69108 50.5682 6.39306C50.5682 3.09505 47.8904 0.417176 44.5923 0.417176H29.7329V18.0771H33.1282V3.53197H44.3668C45.9454 3.53197 47.2138 4.81452 47.2138 6.39306C47.2138 7.9716 45.9454 9.25417 44.3668 9.25417L34.7913 9.24007L44.9305 18.0771H49.8635L43.042 12.3549H44.5923ZM8.83143 18.0771C3.95624 18.0771 0 14.1307 0 9.25417C0 4.37761 3.95624 0.417176 8.83143 0.417176H19.0961C23.9726 0.417176 27.926 4.37761 27.926 9.25417C27.926 14.1307 23.9726 18.0771 19.0961 18.0771H8.83143ZM18.8678 14.9623C22.0263 14.9623 24.5844 12.4112 24.5844 9.25417C24.5844 6.09709 22.0263 3.53197 18.8678 3.53197H9.0583C5.90122 3.53197 3.34168 6.09709 3.34168 9.25417C3.34168 12.4112 5.90122 14.9623 9.0583 14.9623H18.8678ZM83.3651 18.0771C78.4885 18.0771 74.5282 14.1307 74.5282 9.25417C74.5282 4.37761 78.4885 0.417176 83.3651 0.417176H95.5565L93.5692 3.53197H83.5906C80.4335 3.53197 77.8685 6.09709 77.8685 9.25417C77.8685 12.4112 80.4335 14.9623 83.5906 14.9623H95.8383L93.837 18.0771H83.3651ZM124.9 14.9623C122.293 14.9623 120.08 13.2146 119.404 10.8045H133.921L135.922 7.68972H119.404C120.08 5.29373 122.293 3.53197 124.9 3.53197H134.865L136.88 0.417176H124.675C119.798 0.417176 115.838 4.37761 115.838 9.25417C115.838 14.1307 119.798 18.0771 124.675 18.0771H135.147L137.148 14.9623H124.9Z" fill="#EA1B22"/>
</svg>
