<svg xmlns="http://www.w3.org/2000/svg" width="50" height="50" viewBox="0 0 50 50" fill="none">
<path d="M26.8149 44.4163C24.3788 44.4163 22.4033 42.44 22.4033 40.0201V26.7306C22.4033 26.186 22.8484 25.7424 23.395 25.7424H36.7312C39.1674 25.7424 41.1428 27.7187 41.1428 30.1386V40.0124C41.1428 42.44 39.1596 44.4085 36.7312 44.4085H26.8227L26.8149 44.4163ZM24.3788 40.0201C24.3788 41.3585 25.4719 42.4477 26.8149 42.4477H36.7234C38.0664 42.4477 39.1596 41.3585 39.1596 40.0201V30.1464C39.1596 28.8081 38.0664 27.7187 36.7234 27.7187H24.3788V40.0201Z" fill="#4F4F4F"/>
<path d="M4.41158 44.416C1.97545 44.416 0 42.4397 0 40.0199V30.1461C0 27.7185 1.98326 25.75 4.41158 25.75H17.7478C18.2944 25.75 18.7395 26.1935 18.7395 26.7382V40.0277C18.7395 42.4552 16.7562 44.4238 14.3279 44.4238H4.41158V44.416ZM4.41158 27.7108C3.06859 27.7108 1.97545 28.8 1.97545 30.1384V40.0121C1.97545 41.3504 3.06859 42.4397 4.41158 42.4397H14.3201C15.6631 42.4397 16.7562 41.3504 16.7562 40.0121V27.7108H4.41158Z" fill="#4F4F4F"/>
<path d="M23.395 22.0918C22.8484 22.0918 22.4033 21.6482 22.4033 21.1035V7.81409C22.4033 5.3865 24.3866 3.41797 26.8149 3.41797H36.7234C39.1596 3.41797 41.135 5.39427 41.135 7.81409V17.6878C41.135 20.1154 39.1517 22.084 36.7234 22.084H23.3872L23.395 22.0918ZM26.8149 5.3865C25.4719 5.3865 24.3788 6.4758 24.3788 7.81409V20.1154H36.7234C38.0664 20.1154 39.1596 19.0262 39.1596 17.6878V7.81409C39.1596 6.4758 38.0664 5.3865 36.7234 5.3865H26.8149Z" fill="#4F4F4F"/>
<path d="M4.41158 22.0918C1.97545 22.0918 0 20.1154 0 17.6956V7.81409C0 5.39427 1.98326 3.41797 4.41158 3.41797H14.3201C16.7562 3.41797 18.7316 5.39427 18.7316 7.81409V21.1035C18.7316 21.6482 18.2866 22.0918 17.74 22.0918H4.41158ZM4.41158 5.3865C3.06859 5.3865 1.97545 6.4758 1.97545 7.81409V17.6878C1.97545 19.0262 3.06859 20.1154 4.41158 20.1154H16.7562V7.81409C16.7562 6.4758 15.6631 5.3865 14.3201 5.3865H4.41158Z" fill="#4F4F4F"/>
<defs>
<linearGradient id="paint0_linear_10_36937" x1="70.3035" y1="-4.31864" x2="94.4391" y2="36.2562" gradientUnits="userSpaceOnUse">
<stop offset="0.1" stop-color="#FFA229"/>
<stop offset="0.68" stop-color="#1C4670"/>
</linearGradient>
<linearGradient id="paint1_linear_10_36937" x1="299.424" y1="-4.31864" x2="315.061" y2="45.7276" gradientUnits="userSpaceOnUse">
<stop offset="0.1" stop-color="#FFA229"/>
<stop offset="0.68" stop-color="#1C4670"/>
</linearGradient>
<linearGradient id="paint2_linear_10_36937" x1="505.424" y1="-4.31864" x2="521.061" y2="45.7276" gradientUnits="userSpaceOnUse">
<stop offset="0.1" stop-color="#FFA229"/>
<stop offset="0.68" stop-color="#1C4670"/>
</linearGradient>
</defs>
</svg>