<svg width="138" height="22" viewBox="0 0 138 22" fill="none" xmlns="http://www.w3.org/2000/svg">
<path d="M130.327 9.88586V12.7453H132.337V15.5824C132.342 15.7997 132.333 16.0316 132.303 16.2312L132.286 16.3281C132.282 16.3497 132.279 16.3719 132.274 16.3947L132.257 16.4645C132.254 16.4763 132.251 16.4883 132.248 16.5004L132.224 16.574C132.043 17.0964 131.499 17.7584 130.277 17.7584C128.975 17.7584 128.452 16.9984 128.309 16.4645L128.292 16.3947L128.279 16.3281C128.243 16.1093 128.228 15.8359 128.228 15.5824V6.62156C128.228 6.33981 128.245 6.0344 128.296 5.78558L128.33 5.63438C128.333 5.62391 128.336 5.61327 128.338 5.60247L128.357 5.53588C128.361 5.5245 128.365 5.51298 128.368 5.50135L128.393 5.43016C128.579 4.93507 129.071 4.27567 130.266 4.27567C131.189 4.27567 131.686 4.6517 131.951 5.04033L131.998 5.11326C132.013 5.13756 132.027 5.16182 132.04 5.18595L132.078 5.25788L132.11 5.3285L132.139 5.39729L132.163 5.46371L132.184 5.52723L132.201 5.58732L132.215 5.64345L132.226 5.69509C132.231 5.72077 132.236 5.74803 132.24 5.77637L132.252 5.86414C132.254 5.87914 132.255 5.89429 132.257 5.90952L132.269 6.04716L132.277 6.17916L132.284 6.35914L132.286 6.45137V7.53947H137.223L137.224 6.86213L137.228 6.61988L137.227 6.4321L137.222 6.21346L137.218 6.09575L137.21 5.91227L137.197 5.72432L137.186 5.59866C136.852 2.28851 134.364 1.01496 131.337 0.793351L131.134 0.780124L130.93 0.76995C130.827 0.765615 130.725 0.7624 130.621 0.760269L130.414 0.757441C130.379 0.757091 130.344 0.757091 130.31 0.757091L130.101 0.758511C130.067 0.758986 130.032 0.759581 129.998 0.760298L129.792 0.766064L129.587 0.774808L129.384 0.786591L129.182 0.801478C129.115 0.806965 129.049 0.812979 128.982 0.819532L128.785 0.840816C128.752 0.844636 128.719 0.848593 128.686 0.852689L128.491 0.878936C128.039 0.944108 127.604 1.03695 127.191 1.16108L127.016 1.2162C125.103 1.84387 123.713 3.17837 123.427 5.59866L123.398 5.86733L123.377 6.07534L123.359 6.29343L123.343 6.51039C123.334 6.65218 123.328 6.78577 123.328 6.89623L123.329 15.245L123.33 15.3487L123.335 15.5062L123.339 15.6166L123.346 15.7345L123.355 15.8627L123.366 16.004L123.388 16.2464L123.406 16.4323C123.684 19.5083 126.015 20.8767 128.868 21.1995L129.068 21.2204C129.402 21.2523 129.743 21.2703 130.088 21.2754L130.296 21.2769L130.505 21.2754C130.852 21.2703 131.194 21.2523 131.53 21.2204L131.73 21.1995C134.593 20.8767 136.909 19.5083 137.191 16.4323L137.214 16.1611L137.23 15.9316L137.246 15.6744L137.255 15.4529L137.263 15.1393V9.88586H130.327ZM96.2807 1.28453H91.3221V15.7891C91.3299 16.0419 91.3221 16.3259 91.2785 16.5341L91.2639 16.5972L91.2458 16.6644C91.2392 16.6874 91.2319 16.711 91.2239 16.735L91.198 16.8086C91.0109 17.3073 90.5344 17.958 89.3943 17.958C88.3252 17.958 87.8371 17.3707 87.6327 16.8844L87.6027 16.8086C87.5981 16.7961 87.5937 16.7838 87.5894 16.7715L87.566 16.6993L87.5467 16.6303C87.5438 16.6191 87.5411 16.608 87.5385 16.5972L87.5248 16.5341C87.4752 16.3259 87.4689 16.0419 87.4752 15.7891V1.28453H82.518V15.339L82.5172 15.452L82.5189 15.6495L82.5258 15.9402L82.5394 16.2935L82.5489 16.4714L82.5553 16.5658L82.5616 16.6353C82.8045 19.2355 84.33 20.589 86.4843 21.1553L86.6679 21.2013C87.0687 21.297 87.49 21.3667 87.9278 21.4132L88.131 21.4331L88.3364 21.4497L88.544 21.4632C88.6484 21.4691 88.7535 21.4739 88.8593 21.4776L89.0719 21.4834L89.2864 21.4863C89.3223 21.4867 89.3583 21.4867 89.3943 21.4867L89.6101 21.4852C89.6459 21.4847 89.6817 21.4841 89.7173 21.4834L89.9303 21.4776C90.0364 21.4739 90.1416 21.4691 90.2461 21.4632L90.4541 21.4497L90.6599 21.4331L90.8634 21.4132C93.7635 21.1052 95.939 19.7849 96.2386 16.6353L96.2426 16.604L96.2507 16.5214L96.2627 16.3569L96.2735 16.1577L96.2793 16.0138L96.2854 15.793L96.2871 15.6495L96.2865 15.5147L96.2834 15.3932C96.2826 15.3743 96.2817 15.3562 96.2807 15.339V1.28453ZM50.7199 1.28453L48.2464 16.6106L45.7744 1.28453H37.7757L37.3515 20.891H42.2517L42.3844 2.7407L45.756 20.891H50.7277L54.1023 2.7407L54.2355 20.891H59.148L58.7095 1.28453H50.7199ZM21.1053 1.28453L17.4734 20.891H22.7696L25.5065 2.7407L28.1777 20.891H33.4372L29.8204 1.28453H21.1053ZM113.61 17.0701L108.993 1.28453H101.717V20.6866H106.53L106.251 4.39601L111.209 20.6866H118.187V1.28453H113.343L113.61 17.0701ZM69.0897 6.38717C69.0026 5.99997 69.0278 5.58859 69.0729 5.37359C69.0856 5.31653 69.1007 5.25901 69.1185 5.20156L69.1472 5.11554C69.3429 4.572 69.8005 4.06143 70.8498 4.06143C71.9822 4.06143 72.6461 4.76736 72.6461 5.82676V7.02563H77.4799V5.65909C77.4799 2.57519 75.4615 1.38889 73.3049 0.973101L73.1273 0.940639L72.9494 0.911508L72.7713 0.885568L72.5933 0.862682L72.4156 0.842709L72.2384 0.825511C72.1795 0.820226 72.1207 0.81538 72.062 0.810949L71.8867 0.798884L71.7125 0.789176L71.5398 0.781687L71.3688 0.776277L71.1997 0.772808L70.9502 0.770938L70.8402 0.771325L70.6216 0.774446C70.5853 0.775229 70.549 0.776144 70.5129 0.777192L70.2971 0.785087C70.2255 0.788258 70.1542 0.791969 70.0832 0.796231L69.8715 0.810676C66.9226 1.03625 64.6214 2.24755 64.161 5.0881C64.0248 5.95314 63.9911 6.721 64.2079 7.70085C64.5491 9.311 65.8904 10.4568 67.4301 11.4178L67.6685 11.5642C67.7084 11.5884 67.7485 11.6125 67.7886 11.6364L68.0304 11.7789L68.2737 11.9191L68.5179 12.0571L68.8844 12.2606L69.8473 12.7883L70.0812 12.918L70.3112 13.0473L70.5365 13.1764L70.7565 13.3055C71.8059 13.93 72.6467 14.5634 72.9492 15.3206C73.1166 15.7704 73.08 16.3375 72.9991 16.6993L72.9852 16.7576C72.9652 16.8446 72.9401 16.9316 72.9084 17.0172L72.8746 17.1022C72.6519 17.6225 72.1651 18.066 71.0955 18.066C69.8755 18.066 69.1411 17.3646 69.1411 16.3075L69.1396 14.4258H63.9367V15.9215C63.9367 19.4321 66.164 20.957 68.9535 21.4098L69.1611 21.4414C69.3002 21.4611 69.4405 21.4784 69.5819 21.4931L69.7948 21.5134C70.0441 21.535 70.2963 21.5493 70.5504 21.5568L70.7687 21.5616C70.8051 21.5621 70.8416 21.5625 70.8781 21.5628L70.9877 21.5632C71.0607 21.5632 71.1334 21.5627 71.2058 21.5616L71.4221 21.5569C71.4581 21.5558 71.4939 21.5547 71.5297 21.5533L71.7433 21.5438C71.8142 21.54 71.8848 21.5358 71.955 21.5309L72.1647 21.5148C72.3038 21.5029 72.4415 21.4888 72.5776 21.4723L72.7806 21.4459L72.9812 21.416C73.0476 21.4054 73.1136 21.3943 73.1792 21.3825L73.3746 21.3454C75.7359 20.8723 77.4928 19.5895 77.8457 17.1229C77.8942 16.755 77.9241 16.4153 77.9402 16.1047L77.9489 15.902C77.9501 15.869 77.9511 15.8363 77.9519 15.8039L77.9551 15.6143V15.4335L77.9521 15.2616L77.9465 15.0986L77.9386 14.9446C77.9371 14.9197 77.9355 14.8952 77.9339 14.871L77.9231 14.7307L77.9109 14.5996L77.8976 14.4777L77.876 14.3123L77.8537 14.1681L77.8247 14.0092L77.8112 13.9442C77.4707 12.2369 75.9759 11.0309 74.3153 10.0382L74.0771 9.89781L73.8372 9.76013L73.5964 9.62498L73.2347 9.42659L72.755 9.16918L71.9369 8.73407L71.6003 8.55194C71.5635 8.53181 71.5269 8.51171 71.4905 8.49164L71.2751 8.37151L71.0658 8.25185C70.0355 7.65447 69.2567 7.0679 69.0897 6.38717ZM5.32603 6.33909C5.23705 5.96853 5.25096 5.57872 5.29661 5.35221L5.31551 5.2674L5.33695 5.18349C5.50025 4.59474 5.94672 3.98791 7.10068 3.98791C8.24744 3.98791 8.92266 4.70064 8.92266 5.7686V6.98208H13.8131V5.60471C13.8131 2.66182 11.9823 1.4259 9.93655 0.942443L9.75815 0.902276C9.60911 0.870346 9.45918 0.842221 9.30898 0.817539L9.12865 0.78955L8.9483 0.764726L8.76817 0.742929L8.58849 0.724018C8.52869 0.71818 8.46902 0.7128 8.40949 0.707854L8.23142 0.694298L8.05451 0.68321L7.87899 0.674451L7.7051 0.667881L7.53308 0.663361L7.27907 0.659912H7.19559C7.12227 0.659912 7.04924 0.660424 6.9765 0.661458L6.7592 0.666127C6.61495 0.670293 6.47195 0.676574 6.33034 0.685038L6.11897 0.699379C6.08392 0.702044 6.04896 0.704849 6.01409 0.707792L5.80601 0.727137C5.73703 0.734148 5.66843 0.741726 5.60023 0.749879L5.39686 0.776069C5.22841 0.799345 5.06256 0.826264 4.89956 0.856956L4.70534 0.895605L4.51394 0.937927L4.32547 0.98397C4.26315 0.999944 4.20132 1.01655 4.14002 1.03378L3.95768 1.08742C2.05976 1.67083 0.69201 2.89443 0.346746 5.0176C0.20425 5.89649 0.17983 6.66965 0.385768 7.66032C0.748332 9.37228 2.22705 10.5645 3.88138 11.5663L4.12463 11.7116C4.16534 11.7356 4.20613 11.7595 4.24698 11.7833L4.49276 11.9249L4.86285 12.1334L5.35552 12.4052L6.08222 12.8034L6.43525 12.9999L6.77843 13.1957L7.00067 13.3263C7.03723 13.348 7.07353 13.3698 7.10958 13.3916L7.32256 13.5226C8.2308 14.0915 8.94213 14.6774 9.21671 15.3644C9.39655 15.8111 9.35449 16.378 9.26951 16.7516L9.25498 16.812C9.23399 16.898 9.20822 16.984 9.17636 17.0687L9.14241 17.1529C8.91395 17.6824 8.42365 18.1365 7.3401 18.1365C6.11529 18.1365 5.38268 17.423 5.38268 16.3513L5.37588 14.4646H0.114624V15.9638C0.114624 20.1721 3.28751 21.5553 6.80136 21.6592L7.0214 21.6641L7.24217 21.6657L7.46047 21.6641C7.5692 21.6626 7.67729 21.6598 7.78468 21.6559L7.99853 21.6465C8.10497 21.6409 8.21068 21.6342 8.31562 21.6262L8.52442 21.6086L8.73103 21.5876C8.79953 21.5801 8.86765 21.5719 8.93537 21.5632L9.13733 21.5354C9.20425 21.5256 9.27075 21.5151 9.33683 21.5041L9.53376 21.4693C11.979 21.0114 13.8014 19.7143 14.1683 17.1773C14.2189 16.8149 14.2504 16.4796 14.2681 16.1723L14.2779 15.9716L14.2838 15.7793C14.2852 15.7166 14.286 15.6553 14.2863 15.5954L14.2857 15.42L14.2822 15.2531L14.2763 15.0949L14.2682 14.9453L14.2583 14.8044L14.2469 14.6723L14.2278 14.4908L14.2072 14.3294L14.1794 14.1459L14.1477 13.9679C13.8084 12.2807 12.3582 11.0804 10.7267 10.0932L10.4867 9.95023C10.4465 9.92665 10.4063 9.90318 10.366 9.87982L10.1233 9.74105L9.87974 9.60483L9.63583 9.471L9.39223 9.33934L8.31742 8.76882L7.97371 8.58461L7.7505 8.46291L7.5328 8.34186L7.32124 8.22128C7.28653 8.20121 7.2521 8.18116 7.21797 8.16111L7.01686 8.04087C6.12882 7.49994 5.47673 6.95875 5.32603 6.33909Z" fill="#1428A0"/>
</svg>
