<svg width="138" height="29" viewBox="0 0 138 29" fill="none" xmlns="http://www.w3.org/2000/svg">
<path d="M25.2677 15.1632L25.2859 15.1647L27.1815 15.3628C27.3146 15.3772 27.4368 15.4421 27.5232 15.5437L27.5373 15.5609L27.5193 15.5699C27.6079 15.6817 27.6469 15.8248 27.6273 15.9661C27.2131 19.2589 25.6525 22.3006 23.2192 24.5573C20.6944 26.899 17.3781 28.2 13.9346 28.2C12.2621 28.2027 10.6038 27.8948 9.04412 27.2921L8.95915 27.2589C8.83149 27.2117 8.72892 27.1147 8.67462 26.9906L8.66645 26.9708C8.61328 26.8472 8.61032 26.7082 8.65759 26.5829L9.40584 24.7574C9.50723 24.4993 9.79457 24.3693 10.0541 24.4608L10.0713 24.4672C13.896 25.944 18.2277 25.1123 21.2335 22.324C23.1467 20.566 24.3804 18.191 24.7186 15.6149C24.7544 15.3489 24.9852 15.1554 25.2496 15.1624L25.2677 15.1632ZM70.0382 7.41555C71.6546 7.41555 72.9187 7.90872 73.726 8.85583L73.753 8.88793V8.08644C73.7639 7.86273 73.9371 7.68193 74.1582 7.66009L74.1762 7.65867H76.333C76.5549 7.67401 76.7315 7.84867 76.7506 8.06852L76.7518 8.08644V20.0591C76.8216 21.7474 76.3027 23.4074 75.284 24.7555C74.1222 26.1693 72.3572 26.8852 70.0382 26.8852C66.8144 26.8852 64.2703 24.8455 63.8516 21.9322C63.8308 21.7219 63.9589 21.5263 64.158 21.4604L64.1758 21.4549L66.283 20.9596C66.294 20.9572 66.305 20.9551 66.3162 20.9535C66.5475 20.9196 66.7624 21.0796 66.7963 21.3109C66.9888 22.945 68.3933 24.1642 70.0382 24.125C72.5301 24.125 73.7025 22.8585 73.7257 20.2118L73.726 20.1311V19.082C72.7919 20.1297 71.4411 20.7086 70.0382 20.6625C66.4541 20.6625 63.8561 17.8798 63.8561 14.0525C63.8233 12.3305 64.4296 10.6573 65.5581 9.35617C66.7042 8.09695 68.3357 7.3903 70.0382 7.41555ZM5.12785 21.9772L5.15458 21.977L5.1814 21.9772C6.04173 21.9871 6.73443 22.6827 6.74378 23.5399L6.74385 23.5667C6.74385 23.5756 6.74375 23.5846 6.74359 23.5935C6.72861 24.4712 6.00505 25.1706 5.12734 25.1557C4.24963 25.1408 3.55024 24.4172 3.56507 23.5395C3.57975 22.6797 4.27437 21.9909 5.12785 21.9772ZM107.373 7.24896L107.483 7.24978C111.336 7.30299 113.723 9.98493 113.723 14.2776C113.723 14.5047 113.711 14.7317 113.687 14.9575C113.668 15.1652 113.498 15.3254 113.291 15.3352L113.273 15.3357H104.115C104.171 17.2593 105.761 18.7812 107.686 18.7533C109.177 18.847 110.536 17.8986 110.963 16.466C111.041 16.2603 111.263 16.1497 111.473 16.2087L111.49 16.2138L113.318 16.8577C113.419 16.8902 113.502 16.9618 113.548 17.0559L113.557 17.0738C113.607 17.173 113.615 17.2882 113.58 17.3935C112.73 19.9075 110.338 21.571 107.686 21.491C105.946 21.5083 104.273 20.8289 103.039 19.6043C101.691 18.1867 100.972 16.286 101.044 14.3317C101.044 9.9409 104.2 7.3021 107.281 7.24976L107.373 7.24896ZM55.5486 7.24897H55.553C59.475 7.24897 61.9109 9.94157 61.9109 14.2776C61.9106 14.5047 61.8986 14.7317 61.8749 14.9575C61.8567 15.1664 61.6857 15.3277 61.478 15.3354L61.4606 15.3357H52.3021C52.3586 17.2646 53.9569 18.7887 55.8863 18.7534C57.3787 18.8487 58.7388 17.8997 59.1643 16.466C59.2405 16.2587 59.4639 16.1473 59.6741 16.2085L59.6911 16.2138L61.5191 16.8577C61.626 16.8922 61.7129 16.9709 61.7578 17.0738C61.8006 17.1761 61.8006 17.2912 61.7578 17.3935C60.9093 19.9059 58.5189 21.569 55.8683 21.491C54.1264 21.5107 52.4493 20.8311 51.2124 19.6043C49.867 18.1856 49.1482 16.2857 49.2178 14.3317C49.2178 9.89654 52.4372 7.24897 55.5486 7.24897ZM41.6803 7.24441C43.4408 7.24441 44.8637 7.67219 45.9173 8.51414C46.6297 9.08193 47.1577 9.84812 47.4347 10.716L47.4355 10.7195C47.4717 10.8691 47.3838 11.0198 47.2379 11.0632L47.2231 11.0672L45.0393 11.7877C44.9423 11.826 44.8345 11.826 44.7376 11.7877C44.6549 11.749 44.5927 11.6769 44.5665 11.5896L44.5548 11.5466C44.3559 10.8355 43.7057 9.69389 41.6803 9.69389C40.2394 9.69389 39.3749 10.5224 39.3749 11.3239L39.3752 11.3556C39.3861 11.8768 39.6694 12.531 40.9121 12.7797L40.9508 12.7872L43.3553 13.2375C46.012 13.7725 47.5434 15.2164 47.5738 17.2288L47.5742 17.2899L47.5653 17.254L47.5647 17.315C47.526 19.3323 45.5749 21.4549 41.9819 21.4549C37.7719 21.4549 36.1194 19.073 35.8132 17.6682C35.7932 17.5212 35.8829 17.3824 36.0231 17.3392L36.0384 17.335L38.2897 16.6326C38.33 16.626 38.3711 16.626 38.4113 16.6326C38.4686 16.6315 38.5251 16.6437 38.5768 16.6679L38.5959 16.6776C38.6786 16.7172 38.7396 16.7914 38.7625 16.8802C39.0462 18.2311 40.2664 19.037 42.0225 19.037C43.6569 19.037 44.3999 18.1815 44.3999 17.407C44.3999 16.6411 43.7524 16.0733 42.6362 15.8388L42.5988 15.8311L40.0728 15.3403C37.7179 14.8945 36.25 13.4311 36.25 11.5265C36.25 9.20758 38.74 7.24441 41.6803 7.24441ZM132.491 3.4937H134.459C134.691 3.50764 134.873 3.69594 134.882 3.92657L134.882 3.94394V7.64068H137.25C137.48 7.65687 137.66 7.84434 137.669 8.07324L137.669 8.09092V10.0541L137.669 10.0712C137.662 10.2913 137.487 10.4701 137.267 10.4813L137.25 10.4819H134.882V17.0513C134.882 18.1409 135.314 18.5912 136.426 18.5912C136.651 18.5873 136.876 18.5702 137.099 18.5401L137.183 18.5282C137.305 18.5074 137.43 18.5421 137.525 18.6228C137.61 18.7016 137.661 18.81 137.668 18.9253L137.669 18.947V20.7975C137.671 20.9861 137.548 21.1532 137.367 21.2073C136.849 21.3525 136.313 21.4253 135.775 21.4241L135.701 21.4234C133.352 21.4234 131.886 19.9273 131.857 17.5077L131.856 17.434V10.5089H129.807C129.584 10.4957 129.404 10.3205 129.385 10.0992L129.384 10.0811V8.10892C129.383 7.87625 129.56 7.68262 129.79 7.66004L129.807 7.65867L130.358 7.6586L130.417 7.65756C131.06 7.63909 132.047 7.3785 132.067 5.9433L132.068 5.89808V3.94394C132.067 3.71128 132.244 3.51764 132.474 3.49507L132.491 3.4937ZM94.2472 7.24697L94.2987 7.24897H94.2941C96.6123 7.24897 98.9524 8.8641 98.999 12.3915L98.9997 12.499V20.8381C98.9891 21.0618 98.8153 21.2425 98.5945 21.2644L98.5765 21.2659H96.4194C96.1961 21.2526 96.0174 21.0774 95.9975 20.8561L95.9962 20.8381V12.7692L95.9958 12.7071C95.9827 11.679 95.6333 10.0271 93.5156 10.0271C91.9505 10.0271 90.8358 11.2451 90.8137 13.017L90.8134 13.0709V20.8381C90.8028 21.0618 90.6298 21.2425 90.4082 21.2644L90.3902 21.2659H88.2069C87.9828 21.2526 87.8041 21.0774 87.7849 20.8561L87.7837 20.8381V12.7692L87.7833 12.7071C87.7701 11.679 87.4207 10.0271 85.3023 10.0271C83.6753 10.0271 82.5736 11.2362 82.5517 13.043L82.5514 13.0979V20.8381C82.5401 21.0618 82.367 21.2425 82.1462 21.2644L82.1282 21.2659H79.9711C79.7493 21.2505 79.5729 21.0758 79.5538 20.856L79.5526 20.8381V8.05941C79.5631 7.83728 79.734 7.6571 79.9533 7.63323L79.9711 7.63164H82.0471C82.2704 7.6448 82.4498 7.82007 82.4691 8.04137L82.4703 8.05941V8.82939C83.404 7.80564 84.7316 7.23044 86.1171 7.24897C87.7219 7.20194 89.2194 8.05038 90.0032 9.4507C90.9368 8.02432 92.5462 7.18985 94.2472 7.24697ZM126.543 8.83835C127.369 9.92693 127.795 11.2658 127.751 12.6305L127.749 12.6882V20.8381C127.739 21.0602 127.568 21.2404 127.348 21.2643L127.33 21.2659H125.147C124.923 21.2526 124.744 21.0774 124.724 20.8561L124.723 20.8381V13.125C124.723 11.1077 123.773 10.0811 121.972 10.0811C121.177 10.0554 120.416 10.4098 119.923 11.0357C119.447 11.7227 119.201 12.5426 119.22 13.3775L119.221 13.4266V20.8381C119.21 21.0618 119.037 21.2425 118.816 21.2644L118.798 21.2659H116.619C116.395 21.2526 116.216 21.0774 116.197 20.8561L116.196 20.8381V8.05038C116.206 7.82667 116.38 7.64594 116.601 7.62403L116.619 7.62261H118.749C118.971 7.63795 119.147 7.81268 119.166 8.03246L119.167 8.05038V8.95095C120.081 7.8441 121.452 7.21692 122.887 7.24897C124.285 7.1892 125.633 7.77529 126.543 8.83835ZM1.04338 15.7095H16.5462C16.8311 15.7119 17.0612 15.94 17.0684 16.2227L17.0686 16.2409V18.1815C17.0709 18.4664 16.8467 18.7004 16.5643 18.7123L16.5462 18.7128H1.04338C0.758441 18.7104 0.528371 18.4822 0.521057 18.1996V18.1815V16.2408V16.2227C0.528218 15.9462 0.748616 15.7219 1.02488 15.71L1.04338 15.7095ZM70.412 10.1082C68.2868 10.1082 66.9359 11.6211 66.9359 14.0525C66.9359 16.484 68.2687 17.9923 70.412 17.9923C72.4562 17.9923 73.8341 16.4074 73.8341 14.0525C73.8341 11.6931 72.4562 10.1082 70.412 10.1082ZM52.398 12.7389L52.3922 12.7872H58.7995C58.6435 11.0755 57.4372 10.0081 55.6305 9.98692L55.5756 9.98659C53.9836 9.96071 52.6279 11.1251 52.4044 12.6913L52.398 12.7389ZM104.228 12.7389L104.223 12.7872H110.63C110.474 11.0755 109.268 10.0081 107.461 9.98692L107.406 9.98659C105.814 9.96071 104.458 11.1251 104.235 12.6913L104.228 12.7389ZM18.4868 0.900106C18.6211 0.948529 18.7299 1.04924 18.7885 1.17929C18.8423 1.31058 18.8423 1.45778 18.7885 1.58899L18.1131 3.39013C18.0195 3.65719 17.7275 3.79813 17.4602 3.70531C13.9219 2.47056 9.99572 3.17211 7.10402 5.55587C5.30188 7.06432 4.02227 9.10355 3.44783 11.3824C3.38837 11.6125 3.18116 11.7734 2.94353 11.7741H2.82645L0.971323 11.3284C0.833006 11.2959 0.714227 11.2079 0.642635 11.0852H0.6336C0.558533 10.9625 0.537372 10.8143 0.575137 10.6755C1.31183 7.75837 2.96021 5.1525 5.28041 3.23699C8.9698 0.199637 13.9792 -0.686801 18.4868 0.900106ZM11.6202 8.6808H27.123C27.4009 8.68307 27.628 8.90041 27.6445 9.17564L27.6453 9.19407V11.1348C27.6477 11.4197 27.4236 11.6537 27.1411 11.6656L27.123 11.6661H11.6202C11.3372 11.6613 11.1097 11.434 11.1025 11.1532L11.1024 11.1348V9.21206C11.0999 8.92899 11.3213 8.69586 11.6019 8.68143L11.6202 8.6808ZM22.3822 2.75969L22.4089 2.75948L22.4357 2.75971C23.2961 2.76957 23.9888 3.46523 23.9981 4.32233L23.9982 4.34917C23.9982 4.35812 23.9981 4.36708 23.9979 4.37596C23.983 5.25367 23.2594 5.95306 22.3817 5.93816C21.504 5.92325 20.8046 5.19961 20.8195 4.32198C20.8341 3.46211 21.5288 2.77343 22.3822 2.75969Z" fill="#4FB58B"/>
</svg>
