<svg width="141" height="48" viewBox="0 0 141 48" fill="none" xmlns="http://www.w3.org/2000/svg">
<g clip-path="url(#clip0_1_22432)">
<path d="M21.2727 3.0791C9.67472 3.0791 0.272278 12.4813 0.272278 24.0792C0.272278 35.6777 9.67472 45.0791 21.2727 45.0791C32.8719 45.0791 42.2733 35.6777 42.2733 24.0792C42.2733 12.482 32.8719 3.0801 21.2724 3.0801L21.2727 3.0791ZM30.9033 33.3673C30.5271 33.9842 29.7197 34.1798 29.1028 33.8011C24.1721 30.7894 17.965 30.1073 10.655 31.7774C9.95057 31.9379 9.24841 31.4966 9.08791 30.7919C8.92667 30.0872 9.36627 29.3851 10.0724 29.2246C18.0721 27.3969 24.9339 28.1839 30.4695 31.5668C31.0864 31.9454 31.282 32.7504 30.9033 33.3673ZM33.4737 27.6492C32.9998 28.4196 31.9917 28.6628 31.2218 28.1889C25.5769 24.7192 16.9722 23.7144 10.2954 25.7411C9.42946 26.0026 8.5149 25.5146 8.25209 24.6502C7.99129 23.7843 8.47954 22.8715 9.34395 22.6082C16.9707 20.2941 26.4521 21.415 32.9346 25.3985C33.7044 25.8725 33.9477 26.8806 33.4737 27.6495V27.6492ZM33.6944 21.6949C26.9261 17.6748 15.7592 17.3051 9.29706 19.2664C8.25936 19.5811 7.16198 18.9953 6.84751 17.9576C6.53305 16.9194 7.11835 15.8228 8.15679 15.5073C15.5749 13.2554 27.9066 13.6905 35.6991 18.3165C36.6344 18.8704 36.9404 20.0759 36.3862 21.008C35.8345 21.9414 34.6258 22.2491 33.6954 21.6949H33.6944ZM57.4074 22.4653C53.7812 21.6006 53.1367 20.9937 53.1367 19.7186C53.1367 18.5139 54.2702 17.7031 55.9579 17.7031C57.5929 17.7031 59.2129 18.3187 60.9132 19.5861C60.9633 19.6245 61.0285 19.6398 61.0912 19.6298C61.1564 19.6203 61.2116 19.5854 61.2492 19.533L63.0196 17.0373C63.0924 16.9345 63.0723 16.7928 62.9745 16.7143C60.9508 15.0911 58.6738 14.3019 56.0106 14.3019C52.096 14.3019 49.3601 16.6514 49.3601 20.013C49.3601 23.6178 51.7199 24.8942 55.7974 25.8795C59.2656 26.6787 59.8524 27.3483 59.8524 28.545C59.8524 29.8716 58.6688 30.6966 56.7629 30.6966C54.6464 30.6966 52.9186 29.9819 50.9876 28.3118C50.94 28.2691 50.8748 28.2516 50.8146 28.2541C50.7494 28.2591 50.6917 28.2892 50.6516 28.3368L48.6655 30.6991C48.5827 30.7994 48.5927 30.9449 48.688 31.0301C50.935 33.0363 53.6985 34.0945 56.6826 34.0945C60.9006 34.0945 63.6265 31.79 63.6265 28.2215C63.634 25.2105 61.831 23.5428 57.4149 22.4685L57.4074 22.4653ZM73.1709 18.8893C71.3428 18.8893 69.8432 19.6095 68.6043 21.0853V19.4242C68.6043 19.293 68.499 19.1862 68.3686 19.1862H65.1211C64.9907 19.1862 64.8854 19.293 64.8854 19.4242V37.8812C64.8854 38.0116 64.9907 38.1194 65.1211 38.1194H68.3686C68.499 38.1194 68.6043 38.0116 68.6043 37.8812V32.0558C69.8432 33.4425 71.3428 34.1221 73.1709 34.1221C76.5689 34.1221 80.0094 31.5066 80.0094 26.5064C80.0145 21.5053 76.5739 18.889 73.1734 18.889L73.1709 18.8893ZM76.2328 26.5064C76.2328 29.0515 74.6655 30.8295 72.4186 30.8295C70.1992 30.8295 68.5241 28.9713 68.5241 26.5064C68.5241 24.0414 70.1992 22.1836 72.4186 22.1836C74.6279 22.1834 76.2328 24.001 76.2328 26.5062V26.5064ZM88.8241 18.8893C84.4481 18.8893 81.0201 22.2586 81.0201 26.5609C81.0201 30.817 84.4255 34.1497 88.7714 34.1497C93.1624 34.1497 96.6005 30.7919 96.6005 26.5064C96.6005 22.2356 93.185 18.8898 88.8241 18.8898V18.8893ZM88.8241 30.8546C86.4969 30.8546 84.7415 28.9838 84.7415 26.5052C84.7415 24.0153 86.4367 22.2085 88.7714 22.2085C91.1136 22.2085 92.8791 24.0785 92.8791 26.5596C92.8791 29.049 91.1738 30.8546 88.8241 30.8546ZM105.944 19.1862H102.371V15.5334C102.371 15.4025 102.265 15.2957 102.135 15.2957H98.8875C98.7571 15.2957 98.6493 15.4025 98.6493 15.5334V19.1862H97.0895C96.9591 19.1862 96.8538 19.293 96.8538 19.4242V22.2145C96.8538 22.3454 96.9591 22.4525 97.0895 22.4525H98.6493V29.6734C98.6493 32.5899 100.101 34.0695 102.968 34.0695C104.131 34.0695 105.097 33.8287 106.007 33.3121C106.082 33.272 106.127 33.1918 106.127 33.1065V30.4483C106.127 30.3681 106.085 30.2903 106.014 30.2477C105.944 30.2026 105.856 30.2001 105.784 30.2377C105.159 30.5511 104.555 30.6966 103.878 30.6966C102.837 30.6966 102.371 30.2226 102.371 29.1644V22.4537H105.944C106.075 22.4537 106.18 22.3469 106.18 22.2157V19.4257C106.185 19.2945 106.08 19.1877 105.947 19.1877L105.944 19.1862ZM118.393 19.2005V18.7518C118.393 17.432 118.899 16.8435 120.033 16.8435C120.71 16.8435 121.254 16.9779 121.863 17.181C121.938 17.2046 122.016 17.1928 122.076 17.1479C122.139 17.103 122.174 17.031 122.174 16.9548V14.2189C122.174 14.1143 122.109 14.0218 122.006 13.9909C121.364 13.7996 120.542 13.6032 119.308 13.6032C116.311 13.6032 114.724 15.2919 114.724 18.485V19.1721H113.164C113.034 19.1721 112.926 19.279 112.926 19.4099V22.2145C112.926 22.3454 113.034 22.4525 113.164 22.4525H114.724V33.588C114.724 33.7209 114.832 33.8262 114.962 33.8262H118.207C118.34 33.8262 118.445 33.7209 118.445 33.588V22.4532H121.477L126.121 33.588C125.595 34.7566 125.076 34.9898 124.368 34.9898C123.797 34.9898 123.192 34.8193 122.578 34.4807C122.52 34.4506 122.45 34.4456 122.39 34.4632C122.327 34.4858 122.275 34.5309 122.249 34.5911L121.149 37.006C121.096 37.1214 121.141 37.2543 121.251 37.3145C122.4 37.9364 123.436 38.2022 124.717 38.2022C127.114 38.2022 128.441 37.0837 129.607 34.0795L135.239 19.5255C135.27 19.4522 135.259 19.3695 135.214 19.3045C135.172 19.2401 135.099 19.2012 135.021 19.2012H131.641C131.538 19.2012 131.448 19.2657 131.415 19.3607L127.952 29.2496L124.16 19.3542C124.125 19.2622 124.037 19.2012 123.94 19.2012H118.393V19.2005ZM111.175 19.1862H107.928C107.797 19.1862 107.69 19.293 107.69 19.4242V33.588C107.69 33.7209 107.797 33.8262 107.928 33.8262H111.175C111.306 33.8262 111.414 33.7209 111.414 33.588V19.4252C111.414 19.294 111.308 19.1872 111.175 19.1872V19.1862ZM109.57 12.7366C108.284 12.7366 107.241 13.7778 107.241 15.064C107.241 16.3509 108.284 17.3934 109.57 17.3934C110.857 17.3934 111.898 16.3509 111.898 15.064C111.898 13.778 110.854 12.7366 109.57 12.7366ZM138.013 23.7404C136.729 23.7404 135.728 22.7085 135.728 21.4554C135.728 20.2023 136.742 19.1586 138.026 19.1586C139.309 19.1586 140.31 20.1903 140.31 21.4424C140.31 22.6955 139.297 23.7404 138.013 23.7404ZM138.026 19.3858C136.854 19.3858 135.969 20.3161 135.969 21.4554C135.969 22.5942 136.849 23.512 138.013 23.512C139.184 23.512 140.069 22.5824 140.069 21.4424C140.069 20.3036 139.189 19.3858 138.026 19.3858ZM138.532 21.6773L139.179 22.5821H138.632L138.051 21.7521H137.552V22.5821H137.095V20.1837H138.163C138.723 20.1837 139.089 20.4689 139.089 20.9488C139.091 21.3421 138.863 21.5823 138.535 21.6773H138.532ZM138.146 20.5953H137.552V21.3538H138.146C138.442 21.3538 138.62 21.2086 138.62 20.9742C138.62 20.7274 138.442 20.5953 138.146 20.5953Z" fill="#1ED760"/>
</g>
<defs>
<clipPath id="clip0_1_22432">
<rect width="140" height="48" fill="white" transform="translate(0.200012)"/>
</clipPath>
</defs>
</svg>
