<svg width="19" height="19" viewBox="0 0 19 19" fill="none" xmlns="http://www.w3.org/2000/svg">
<path d="M7.59996 1.8541C8.19866 0.0114808 10.8055 0.0114803 11.4042 1.8541L12.1985 4.29862C12.4662 5.12267 13.2341 5.68059 14.1006 5.68059H16.6709C18.6083 5.68059 19.4139 8.15982 17.8465 9.29862L15.767 10.8094C15.0661 11.3187 14.7727 12.2214 15.0405 13.0455L15.8348 15.49C16.4335 17.3326 14.3245 18.8649 12.7571 17.7261L10.6776 16.2153C9.97666 15.706 9.02747 15.706 8.3265 16.2153L6.24706 17.7261C4.67964 18.8649 2.57068 17.3326 3.16938 15.49L3.96365 13.0455C4.2314 12.2214 3.93809 11.3187 3.23711 10.8094L1.15768 9.29862C-0.40975 8.15982 0.395802 5.68059 2.33325 5.68059H4.90357C5.77002 5.68059 6.53793 5.12267 6.80568 4.29862L7.59996 1.8541Z" fill="#FFC226"/>
</svg>
