<svg width="28" height="30" viewBox="0 0 28 30" fill="none" xmlns="http://www.w3.org/2000/svg">
<g filter="url(#filter0_d_5878_41)">
<path fill-rule="evenodd" clip-rule="evenodd" d="M2 5.26667C2 3.77319 2 3.02646 2.29065 2.45603C2.54631 1.95426 2.95426 1.54631 3.45603 1.29065C4.02646 1 4.77319 1 6.26667 1H21.7333C23.2268 1 23.9735 1 24.544 1.29065C25.0457 1.54631 25.4537 1.95426 25.7094 2.45603C26 3.02646 26 3.77319 26 5.26667V16.7333C26 18.2268 26 18.9735 25.7094 19.544C25.4537 20.0457 25.0457 20.4537 24.544 20.7094C23.9735 21 23.2268 21 21.7333 21H15.8855L18.9428 24.0573C19.4635 24.578 19.4635 25.4222 18.9428 25.9429C18.4221 26.4636 17.5779 26.4636 17.0572 25.9429L14 22.8857L10.9428 25.9429C10.4221 26.4636 9.57789 26.4636 9.05719 25.9429C8.53649 25.4222 8.53649 24.578 9.05719 24.0573L12.1145 21H6.26667C4.77319 21 4.02646 21 3.45603 20.7094C2.95426 20.4537 2.54631 20.0457 2.29065 19.544C2 18.9735 2 18.2268 2 16.7333V5.26667ZM20.1311 6.59837C20.7211 7.03894 20.8423 7.87442 20.4017 8.46447L16.9148 13.1344C16.4807 13.7159 15.6866 13.8924 15.047 13.5498L12.4969 12.1837L9.64141 15.2432C9.13897 15.7815 8.29525 15.8106 7.75691 15.3082C7.21858 14.8057 7.18949 13.962 7.69193 13.4237L11.1775 9.68914C11.6314 9.20278 12.3559 9.08287 12.9423 9.39703L15.3959 10.7115L18.265 6.86903C18.7055 6.27898 19.541 6.15781 20.1311 6.59837Z" fill="white"/>
</g>
<defs>
<filter id="filter0_d_5878_41" x="0" y="0" width="28" height="29.3334" filterUnits="userSpaceOnUse" color-interpolation-filters="sRGB">
<feFlood flood-opacity="0" result="BackgroundImageFix"/>
<feColorMatrix in="SourceAlpha" type="matrix" values="0 0 0 0 0 0 0 0 0 0 0 0 0 0 0 0 0 0 127 0" result="hardAlpha"/>
<feOffset dy="1"/>
<feGaussianBlur stdDeviation="1"/>
<feComposite in2="hardAlpha" operator="out"/>
<feColorMatrix type="matrix" values="0 0 0 0 0.0627451 0 0 0 0 0.0941176 0 0 0 0 0.156863 0 0 0 0.04 0"/>
<feBlend mode="normal" in2="BackgroundImageFix" result="effect1_dropShadow_5878_41"/>
<feBlend mode="normal" in="SourceGraphic" in2="effect1_dropShadow_5878_41" result="shape"/>
</filter>
</defs>
</svg>
