<svg width="117" height="48" viewBox="0 0 117 48" fill="none" xmlns="http://www.w3.org/2000/svg">
<g clip-path="url(#clip0_1_22435)">
<path d="M38.0464 21.4076C38.0464 19.346 35.9848 17.1469 32.5488 17.1469C28.7005 17.1469 24.3024 20.0332 23.6152 25.8057C22.9279 31.5782 26.5014 34.1896 30.2123 34.1896C33.9232 34.1896 35.7099 32.8152 37.6341 30.891C35.9848 28.8294 33.7858 29.7915 33.3734 29.9289C32.9611 30.2038 32.2739 30.4787 31.1744 30.4787C29.8 30.4787 28.2881 29.7915 28.2881 27.1801C37.3592 26.218 38.0464 23.4692 38.0464 21.4076ZM33.6483 21.6825C33.6483 22.3697 33.3734 23.4692 28.8379 24.019C29.8 20.5829 31.5867 20.3081 32.4114 20.3081C33.236 20.4455 33.6483 20.9953 33.6483 21.6825ZM18.3924 22.2322C18.3924 22.2322 16.4682 28.2796 16.3308 28.8294C16.3308 28.2796 14.8189 17.4218 14.8189 17.4218C11.5204 17.4218 9.73364 19.7583 8.90899 22.2322C8.90899 22.2322 6.5725 28.2796 6.43506 28.8294C6.29762 28.4171 6.02274 22.3697 6.02274 22.3697C5.74786 19.346 2.99904 17.4218 0.799988 17.4218L3.5488 33.9147C6.98482 33.9147 8.90899 31.5782 9.87108 29.1043C9.87108 29.1043 11.9327 23.7441 12.0701 23.4692C12.0701 23.7441 13.582 33.9147 13.582 33.9147C17.018 33.9147 18.9422 31.7156 19.9043 29.3791L24.7147 17.4218C21.1412 17.4218 19.3545 19.7583 18.3924 22.2322ZM50.8284 17.0095C48.7668 17.0095 47.1175 18.109 45.7431 19.8957L46.8426 10C43.9564 10 41.7573 12.4739 41.2076 16.0474L39.0085 33.7772C40.6578 33.7772 42.3071 33.3649 43.2692 32.128C44.0938 33.2275 45.3308 34.0521 47.1175 34.0521C51.9279 34.0521 55.2265 28.5545 55.2265 23.3318C55.364 18.5213 53.0275 17.0095 50.8284 17.0095ZM50.2787 25.5308C49.7289 28.4171 48.217 30.3412 46.5678 30.3412C45.0559 30.3412 44.3687 29.654 44.3687 29.654C44.6436 27.1801 44.9185 25.5308 45.4682 24.1564C46.018 22.782 47.3924 20.7204 48.7668 20.7204C50.1412 20.8578 50.8284 22.6446 50.2787 25.5308ZM67.3213 17.4218H64.0227V17.2844C64.2976 15.0853 64.7099 13.9858 66.4967 13.8483C67.5962 13.7109 68.146 13.1611 68.2834 12.4739C68.4208 11.9242 68.6957 10.1374 68.6957 10.1374C61.9611 10.1374 59.8995 13.0237 59.3497 17.4218V17.5592H59.2123C58.1128 17.5592 56.8758 18.7962 56.7384 20.3081L56.6009 20.8578H58.8L56.8758 36.2512L56.3261 39C56.4635 39 56.4635 39 56.6009 39C59.7621 38.8626 61.6862 36.3886 62.236 32.8152L63.7479 20.7204H64.8474C65.8095 20.7204 67.0464 19.7583 67.3213 17.9716V17.4218ZM84.6388 17.1469C80.7905 17.1469 77.217 20.0332 76.1175 24.4313C75.018 28.8294 76.6673 34.1896 82.3024 34.1896C87.9374 34.1896 91.236 28.6919 91.236 24.1564C91.0986 19.6209 88.0749 17.1469 84.6388 17.1469ZM86.1507 25.3934C86.0133 27.455 85.0512 30.4787 82.5772 30.4787C80.1033 30.4787 80.5156 26.9052 80.6531 25.2559C80.9279 23.4692 81.89 20.8578 84.0891 20.8578C86.1507 20.8578 86.4256 23.1943 86.1507 25.3934ZM110.203 22.2322C110.203 22.2322 108.279 28.2796 108.141 28.8294C108.141 28.2796 106.629 17.4218 106.629 17.4218C103.331 17.4218 101.544 19.7583 100.719 22.2322C100.719 22.2322 98.3829 28.2796 98.2455 28.8294C98.2455 28.4171 97.8332 22.3697 97.8332 22.3697C97.6957 19.346 94.8095 17.5592 92.6104 17.5592L95.3592 34.0521C98.7952 34.0521 100.719 31.7156 101.682 29.2417C101.682 29.2417 103.743 23.8815 103.881 23.6066C103.881 23.8815 105.392 34.0521 105.392 34.0521C108.828 34.0521 110.753 31.8531 111.715 29.5166L116.25 17.4218C112.814 17.4218 111.027 19.7583 110.203 22.2322ZM70.4825 10.1374L67.7336 32.6777L67.1839 35.4265C67.3213 35.4265 67.3213 35.4265 67.4588 35.4265C70.4825 35.4265 72.6815 32.6777 72.9564 29.3791L74.6057 16.4597C75.018 12.6114 72.5441 10.1374 70.4825 10.1374Z" fill="#1B1B1B"/>
</g>
<defs>
<clipPath id="clip0_1_22435">
<rect width="116" height="48" fill="white" transform="translate(0.799988)"/>
</clipPath>
</defs>
</svg>
